<svg xmlns="http://www.w3.org/2000/svg" viewBox="0 0 293.37 181.38"><circle cx="146.78" cy="66.31" r="58.5" style="fill:#0eaa5f"/><path d="M146.78 12.31a54 54 0 1 1-54 54 54.07 54.07 0 0 1 54-54m0-9a63 63 0 1 0 63 63 63 63 0 0 0-63-63" style="fill:#fff"/><circle cx="162.3" cy="89.88" r="34.66" style="fill:#fff"/><circle cx="162.3" cy="89.88" r="25.47" style="fill:#387f21"/><path d="M3.9 144.51h4.66l7.59 12.79c.34-.69 7.2-12.1 7.59-12.79h4.71l-10 16.36 11.08 16.66h-4.66l-8.62-13.28c-.44.75-7.84 12.55-8.25 13.28H3.31l10.63-16.66Zm63.4 0h4V165c0 8.67-4.65 12.93-12.15 12.93s-12-4.26-12-12.54v-20.88h4v20.82c0 6.42 3.47 8.87 8 8.87 4.8 0 8.18-2.4 8.18-9.11ZM82.4 157a8.13 8.13 0 0 1 7.84-4.65c4.85 0 7.93 3.18 7.93 8.08v17.1H94.3v-16.07c0-3.77-2.15-5.63-5-5.63-3.48 0-6.86 2.79-6.86 8.13v13.57h-3.86v-24.84h3.82Zm34.44 17.59a10.23 10.23 0 0 0 5.29-1.61v3.67a12.6 12.6 0 0 1-5.78 1.42c-8.18 0-12.79-6-12.79-12.88 0-6.62 4.56-12.94 12.89-12.94a12.46 12.46 0 0 1 5.68 1.37v3.68a10.5 10.5 0 0 0-5.29-1.52c-5.78 0-9.26 4.31-9.26 9.45s3.09 9.36 9.26 9.36m29.4 1.67a17 17 0 0 1-7.05 1.52c-7.55 0-12.55-5.05-12.55-12.59 0-8.09 4.71-12.79 11-12.79 6 0 10.14 4 10.14 11.46a20.4 20.4 0 0 1-.25 2.89h-16.92c.59 5 4 7.6 9 7.6a12.7 12.7 0 0 0 6.66-1.72Zm-2.3-13.72c0-4.12-2.35-6.76-6.27-6.76-3.58 0-6.57 2.6-7.06 7.74h13.33Zm13.57-5.54a8.14 8.14 0 0 1 7.84-4.65c4.85 0 7.94 3.18 7.94 8.08v17.1h-3.87v-16.07c0-3.77-2.16-5.63-5-5.63-3.48 0-6.86 2.79-6.86 8.13v13.57h-3.82v-24.84h3.82Zm36.16.2a13 13 0 0 0-6.17-1.37c-2.65 0-4.26 1.37-4.26 3.23 0 2.5 2.5 3.43 5.19 4.61 3.48 1.42 6.66 3.23 6.66 7.25 0 4.26-3.18 6.91-8.32 6.91a16.66 16.66 0 0 1-7.31-1.52v-3.78a14.26 14.26 0 0 0 7.06 2c3.14 0 4.61-1.37 4.61-3.28 0-2.55-2.26-3.58-5.64-5-3-1.17-6.17-3-6.17-7 0-4.26 3.62-6.76 8.13-6.76a16.1 16.1 0 0 1 6.22 1.07Zm5.2 8.08c0-7.2 4.55-12.93 11.56-12.93 7.79 0 11.76 5.73 11.76 12.84S218 178 210.43 178c-7.35 0-11.56-5.66-11.56-12.72m4-.05c0 5 2.84 9.31 7.54 9.31 5.19 0 7.74-4.31 7.74-9.31s-2.15-9.45-7.74-9.45c-4.93 0-7.52 4.46-7.52 9.45Zm28.83-8.18a6.91 6.91 0 0 1 6.76-4.6 7.3 7.3 0 0 1 1.37.09v3.83a6.2 6.2 0 0 0-2.11-.35c-3.62 0-6 4-6 7.94v13.57h-3.87v-24.84h3.82Zm30.3 19.21a17 17 0 0 1-7.06 1.52c-7.54 0-12.54-5.05-12.54-12.59 0-8.09 4.7-12.79 11-12.79 6 0 10.15 4 10.15 11.46a20.4 20.4 0 0 1-.25 2.89h-17c.59 5 4 7.6 9 7.6a12.74 12.74 0 0 0 6.67-1.72Zm-2.31-13.72c0-4.12-2.35-6.76-6.27-6.76-3.57 0-6.56 2.6-7.05 7.74h13.32Zm30.36-19.65v34.64h-3.87v-3.67a8.64 8.64 0 0 1-7.64 4.06c-6.91 0-10.58-6-10.58-12.59 0-7.79 4.45-13 10.68-13a8.67 8.67 0 0 1 7.54 4.16v-13.6Zm-3.87 22.05c0-7-4.26-9.11-7.05-9.11-3.92 0-7.16 3.13-7.16 9.55 0 5.39 3 9 6.91 9 3.53.02 7.3-2.24 7.3-9.44"/><path d="M146.78 3.56A62.75 62.75 0 1 1 84 66.31a62.82 62.82 0 0 1 62.78-62.75m0-.25a63 63 0 1 0 63 63 63 63 0 0 0-63-63" style="fill:#a0a0a0"/></svg>